# xmcd
#
# Track frame offsets:
#	183
#	13638
#	29493
#	40275
#	55898
#	73623
#	90703
#	105503
#	125005
#	140018
#	153565
#	171785
#	190350
#
# Disc length: 2765
#
# Revision: 1
# Processed by: cddbd v1.5.2PL0 Copyright (c) Steve Scherf et al.
# Submitted via: Broken Cross Disk Manager 3.94.2201
#
DISCID=b70acb0d
DTITLE=The Sunday Skifflers - Streamline Train
DYEAR=1993
DGENRE=
TTITLE0=Streamline Train
TTITLE1=Evangelina
TTITLE2=Sing E Chli Country
TTITLE3=In My Dreams
TTITLE4=Storms Never Last
TTITLE5=Yakety Sax - Night Train
TTITLE6=Cowboys Have To Fall In Love
TTITLE7=Big Man
TTITLE8=De Letschi Joint
TTITLE9=Alphorn Skiffle
TTITLE10=If I Can Find A Clean Shirt
TTITLE11=Beneath Still Waters
TTITLE12=Lion In The Winter
EXTD=
EXTT0=
EXTT1=
EXTT2=
EXTT3=
EXTT4=
EXTT5=
EXTT6=
EXTT7=
EXTT8=
EXTT9=
EXTT10=
EXTT11=
EXTT12=
PLAYORDER=
